<?xml version="1.0" encoding="utf-8"?>
<svg viewBox="0 0 500 500" xmlns="http://www.w3.org/2000/svg">
  <defs>
    <radialGradient gradientUnits="userSpaceOnUse" cx="98.604" cy="98.603" r="89.934" id="gradient-0" gradientTransform="matrix(2.708072, 0, 0, 2.705375, -19.242078, -15.315182)">
      <stop offset="0" style="stop-color: rgba(205, 176, 91, 1)"/>
      <stop offset="1" style="stop-color: rgba(149, 123, 45, 1)"/>
    </radialGradient>
  </defs>
  <path d="M 434.86 494.751 L 60.714 494.751 C 29.65 494.751 4.237 469.362 4.237 438.33 L 4.237 64.556 C 4.237 33.521 29.653 8.135 60.714 8.135 L 434.857 8.135 C 465.922 8.135 491.334 33.524 491.334 64.556 L 491.334 438.327 C 491.337 469.362 465.922 494.751 434.86 494.751 Z" style="fill: url(#gradient-0); paint-order: stroke; fill-opacity: 0.8;"/>
  <path d="M 432.831 9.803 C 463.263 9.803 488.159 34.887 488.159 65.545 L 488.159 434.827 C 488.159 465.488 463.261 490.57 432.831 490.57 L 66.3 490.57 C 35.867 490.57 10.972 465.485 10.972 434.827 L 10.972 65.545 C 10.972 34.884 35.87 9.803 66.3 9.803 L 432.831 9.803 Z M 432.831 -0.889 L 66.3 -0.889 C 29.938 -0.889 0.36 28.913 0.36 65.545 L 0.36 434.827 C 0.36 471.459 29.938 501.262 66.3 501.262 L 432.828 501.262 C 469.186 501.262 498.767 471.459 498.767 434.827 L 498.767 65.545 C 498.77 28.913 469.189 -0.889 432.831 -0.889 Z" fill="#223948" style=""/>
</svg>