<svg xmlns="http://www.w3.org/2000/svg" width="200" height="200" fill="none" xmlns:v="https://vecta.io/nano"><style><![CDATA[.B{fill:#cecece}.C{fill:#414342}.D{fill:#abacab}.E{fill:#595959}.F{stroke:#414342}.G{stroke-miterlimit:10}.H{stroke-linejoin:round}]]></style><path d="M167.685 188.538H29.525c-11.471 0-20.855-9.385-20.855-20.855V29.523c0-11.471 9.385-20.855 20.855-20.855h138.159c11.471 0 20.855 9.385 20.855 20.855v138.159c.001 11.471-9.384 20.856-20.854 20.856h0z" fill="url(#A)"/><path d="M167.685 8.668c11.471 0 20.855 9.385 20.855 20.855v138.159c0 11.471-9.385 20.855-20.855 20.855H29.525c-11.471 0-20.855-9.385-20.855-20.855V29.523c0-11.471 9.385-20.855 20.855-20.855h138.16zm0-4H29.525c-13.706 0-24.855 11.15-24.855 24.855v138.159c0 13.705 11.149 24.855 24.855 24.855h138.159c13.705 0 24.855-11.15 24.855-24.855V29.523c.001-13.705-11.149-24.855-24.854-24.855h0z" fill="#223948"/><path d="M35.151 82.186a.78.78 0 0 1-.734-.73l-.293-4.401c-.009-.205.059-.405.19-.562l14.5-17.393c.074-.084.164-.152.266-.198s.212-.07.324-.07.222.024.324.07.193.114.266.198l14.507 17.403a.81.81 0 0 1 .153.687l-1.049 4.401c-.041.165-.134.313-.267.42s-.296.169-.466.175H35.151h0zm48.598-15.753c-.197-.005-.385-.083-.528-.219s-.229-.32-.243-.517l-.285-4.401a.78.78 0 0 1 .169-.524L97.377 43.35c.073-.085.165-.154.267-.201s.214-.071.326-.071.224.024.326.071.194.116.267.201l14.5 17.406c.075.093.129.201.157.318a.8.8 0 0 1 .005.354l-1.05 4.408a.81.81 0 0 1-.735.593l-27.692.004h0zm48.686 15.753c-.191-.01-.371-.09-.506-.225s-.215-.314-.226-.505l-.295-4.401c-.008-.193.053-.383.172-.536l14.513-17.418a.8.8 0 0 1 .269-.197c.102-.046.213-.07.325-.072.228 0 .446.101.593.268l14.502 17.403a.78.78 0 0 1 .157.325c.027.119.025.243-.005.362l-1.039 4.401c-.042.165-.137.313-.269.42s-.297.169-.467.175h-27.724v-.001z" fill="#81635e"/><path d="M97.962 43.813l10.132 22.753 1.306-.026-.293-2.307.346-5.693 1.731-.042-13.222-14.685zm48.685 15.778l10.132 22.753 1.308-.031-.299-2.3.345-5.7 1.729-.042-13.215-14.68zm-97.291.01l10.134 22.75 1.306-.022-.3-2.306.345-5.694 1.732-.052-13.217-14.676z" fill="#715b57"/><path d="M146.655 59.601l14.505 17.403-1.057 4.453h-27.67l-.294-4.401 14.508-17.407.008-.048zm-.008-1.423a1.55 1.55 0 0 0-1.161.547l-14.505 17.406c-.246.297-.372.676-.353 1.061l.287 4.401a1.52 1.52 0 0 0 1.512 1.419h27.676a1.52 1.52 0 0 0 1.469-1.16l1.059-4.402c.1-.462-.014-.951-.311-1.318l-14.508-17.406c-.143-.169-.322-.306-.523-.401a1.55 1.55 0 0 0-.642-.147h0zM49.37 59.601l14.508 17.403-1.05 4.401H35.15l-.286-4.401L49.37 59.596v.005zm0-1.47a1.52 1.52 0 0 0-1.159.541L33.705 76.077a1.58 1.58 0 0 0-.354 1.063l.294 4.401c.05.782.685 1.396 1.468 1.418h27.679a1.53 1.53 0 0 0 1.466-1.166l1.052-4.401c.05-.23.048-.468-.006-.696s-.157-.443-.304-.627L50.492 58.667a1.56 1.56 0 0 0-1.165-.548l.043.012h0zm48.599-14.303l14.5 17.406-1.051 4.401h-27.67l-.293-4.401 14.506-17.406h.008zm-.008-1.467c-.45 0-.877.205-1.166.547L82.324 60.284a1.54 1.54 0 0 0-.352 1.07l.285 4.408c.027.383.198.74.479 1.002s.65.406 1.033.405h27.68a1.54 1.54 0 0 0 1.467-1.16l1.05-4.401a1.54 1.54 0 0 0-.31-1.324L99.129 42.888c-.141-.171-.319-.309-.519-.404s-.419-.146-.641-.148l-.008.025h0z" fill="#414343"/><path d="M81.834 75.453h32.32a.74.74 0 0 1 .283.056c.09.037.172.092.241.16a.73.73 0 0 1 .16.24c.038.09.057.186.057.283v31.561a.75.75 0 0 1-.056.284.74.74 0 0 1-.161.24c-.069.069-.151.124-.24.161a.75.75 0 0 1-.284.056h-32.32c-.097 0-.194-.019-.284-.056s-.172-.091-.241-.16-.124-.151-.161-.241a.74.74 0 0 1-.056-.284V76.193a.74.74 0 0 1 .217-.524.74.74 0 0 1 .525-.216h0z" class="B"/><path d="M114.163 76.199v31.555H81.84V76.199h32.323 0zm0-1.465H81.84c-.811 0-1.467.656-1.467 1.465v31.555c0 .809.656 1.466 1.467 1.466h32.323c.812 0 1.468-.657 1.468-1.466V76.199c0-.808-.656-1.465-1.468-1.465z" class="C"/><path d="M69.117 156.859c-.195 0-.381-.078-.519-.215s-.215-.325-.215-.519l-1.65-54.438a.74.74 0 0 1 .049-.291c.036-.093.09-.177.159-.249a.75.75 0 0 1 .243-.167c.091-.038.19-.058.289-.058h8.725c.096-.001.192.018.281.055a.72.72 0 0 1 .239.158.73.73 0 0 1 .159.238c.037.089.056.185.055.281v6.604h7.242v-6.604a.73.73 0 0 1 .215-.519.72.72 0 0 1 .238-.158c.089-.037.185-.056.281-.055h8.731c.403 0 .734.325.734.732v6.604h7.243v-6.604c0-.096.018-.192.055-.281s.091-.169.159-.237.149-.122.237-.159.185-.055.281-.055h8.732a.73.73 0 0 1 .28.055c.089.037.17.091.238.159s.122.149.159.237a.75.75 0 0 1 .055.281v6.604h7.244v-6.604c0-.096.018-.192.055-.281s.091-.169.159-.237.149-.122.237-.159.185-.055.281-.055h8.762a.74.74 0 0 1 .29.057.73.73 0 0 1 .244.167c.069.071.123.156.158.249s.052.192.048.292l-1.671 54.453c0 .404-.33.735-.735.735l-57.767-.016h0z" class="B"/><path d="M121.604 100.976l-1.743 48.841a1.31 1.31 0 0 1-.407.882c-.243.231-.566.361-.902.362h-48.98v5.741h56.964v-5.741h-.287l2.305-50.17-6.95.085h0z" class="D"/><path d="M29.741 156.877a.75.75 0 0 1-.302-.065.74.74 0 0 1-.402-.452.74.74 0 0 1-.029-.308l2.773-63.59-2.656-3.703c-.089-.13-.137-.284-.139-.441V74.961a.73.73 0 0 1 .215-.518.73.73 0 0 1 .519-.212h7.865a.73.73 0 0 1 .519.212.73.73 0 0 1 .215.518v7.044h6.391v-7.044a.73.73 0 0 1 .215-.518.73.73 0 0 1 .519-.212h7.873c.098-.002.196.017.287.055s.173.094.241.166a.73.73 0 0 1 .213.521v7.042h6.398v-7.042c0-.405.329-.736.734-.736h7.925c.404 0 .732.331.732.736v13.33a.73.73 0 0 1-.146.44l-2.649 3.72 2.795 63.623a.73.73 0 0 1-.172.533.71.71 0 0 1-.225.177c-.086.044-.179.07-.275.078-.02 0-.041.005-.061.005H29.741v-.001z" class="B"/><path d="M114.154 108.494l-2.352-.248-.081-7.456h-2.151V77.16l4.567.065.017 31.269z" class="D"/><path d="M128.553 101.678l-1.682 54.453h-57.77l-1.65-54.438h8.726v7.338h8.732v-7.338h8.731v7.338h8.725v-7.338h8.734v7.338h8.725v-7.338h8.73v-.015zm0-1.452h-8.73c-.814 0-1.47.656-1.47 1.468v5.873h-5.761v-5.873c0-.812-.656-1.468-1.467-1.468h-8.73c-.811 0-1.468.656-1.468 1.468v5.873h-5.762v-5.873c0-.812-.657-1.468-1.469-1.468h-8.73c-.813 0-1.469.656-1.469 1.468v5.873h-5.759v-5.873a1.47 1.47 0 0 0-1.469-1.468h-8.812c-.401 0-.786.162-1.065.446-.139.143-.247.312-.319.497a1.47 1.47 0 0 0-.098.582l1.672 54.411c0 .81.656 1.466 1.469 1.466h57.771c.809 0 1.466-.656 1.466-1.466l1.676-54.375v-.119c0-.813-.657-1.469-1.468-1.469l-.008.027h0z" class="C"/><path d="M126.902 156.857a.8.8 0 0 1-.309-.068c-.098-.043-.185-.105-.258-.183s-.123-.167-.156-.266a.74.74 0 0 1-.032-.307l2.794-63.574-2.663-3.703v-.068a.7.7 0 0 1-.102-.373V74.97c0-.405.328-.736.732-.736h7.869c.403 0 .732.331.732.736v7.033h6.396V74.97c0-.405.329-.736.732-.736h7.928a.74.74 0 0 1 .283.056c.09.037.172.092.241.161a.75.75 0 0 1 .16.241c.037.09.056.186.056.284v7.037h6.393v-7.037c0-.404.328-.735.734-.735h7.863c.098-.001.195.018.285.055a.73.73 0 0 1 .242.162.74.74 0 0 1 .16.243c.036.091.054.188.053.286v13.33c0 .13-.032.259-.094.373l-.043.068-2.693 3.703 2.804 63.627c.014.194-.048.386-.174.535a.74.74 0 0 1-.498.258h-.063l-39.372-.024z" class="B"/><g class="E"><path d="M49.355 106.227a3.86 3.86 0 0 0-3.668 3.949v8.427h7.461v-8.526a3.77 3.77 0 0 0-.258-1.45c-.18-.461-.45-.883-.793-1.24s-.754-.643-1.208-.841a3.77 3.77 0 0 0-1.438-.314c-.031-.005-.062-.005-.096-.005h0z" class="F G H"/><path d="M142.835 119.102a.5.5 0 0 1-.5-.5v-8.427c-.028-1.136.389-2.237 1.163-3.069s1.843-1.326 2.977-1.379c.005-.001.167.006.198.011 2.287.035 4.173 1.988 4.131 4.347v8.518a.5.5 0 0 1-.5.5h-7.469v-.001z"/></g><path d="M146.5 106.227a.53.53 0 0 1 .09.005c1.002.017 1.956.432 2.652 1.153a3.78 3.78 0 0 1 1.061 2.692v8.526h-7.469v-8.427c-.023-1.006.348-1.981 1.032-2.718a3.86 3.86 0 0 1 2.634-1.231h0zm0-1l-.053.001a4.84 4.84 0 0 0-3.321 1.544c-.862.929-1.326 2.159-1.292 3.427v8.404a1 1 0 0 0 1 1h7.469c.265 0 .519-.106.707-.293s.293-.442.293-.707v-8.526c.047-2.601-2.033-4.771-4.646-4.844l-.157-.006h0z" class="C"/><path d="M97.734 83.027c-.889.044-1.726.434-2.332 1.087s-.933 1.516-.911 2.405v7.411h6.603v-7.537c.005-.437-.076-.871-.24-1.277a3.33 3.33 0 0 0-1.783-1.822 3.33 3.33 0 0 0-1.272-.267h-.065z" class="E F G H"/><path d="M29.236 151.062l-.287 5.631h41.144l-2.979-63.678-6.018-.117 1.328 56.799a1.33 1.33 0 0 1-.362.951 1.34 1.34 0 0 1-.423.3c-.159.071-.331.11-.506.114H29.236zm97.041 0l-.285 5.631h41.143l-2.98-63.678-6.015-.117 1.334 56.994a1.15 1.15 0 0 1-.314.816 1.14 1.14 0 0 1-.799.354h-32.084z" class="D"/><path d="M88.746 156.877v-21.136c0-5.604 4.064-10.227 9.061-10.315h.146c5.076 0 9.216 4.474 9.216 9.979v21.478h-.77l-17.653-.006h0z" class="E"/><path d="M97.933 126.127c4.683 0 8.467 4.14 8.467 9.24v20.736H89.523v-20.401c0-5.137 3.669-9.49 8.336-9.538h.131l-.057-.037zm.057-1.429h-.162c-5.399.096-9.795 5.049-9.795 11.057v20.401a1.51 1.51 0 0 0 .116.577c.076.183.188.35.328.49a1.5 1.5 0 0 0 .49.326 1.51 1.51 0 0 0 .578.115h16.878a1.51 1.51 0 0 0 1.511-1.508v-20.789c0-5.915-4.467-10.722-9.958-10.722l.014.053h0z" class="C"/><path d="M112.027 60.946l6.164-.555.368 12.384-3.69 4.387h-5.668l2.785-4.666.041-11.55z" fill="#000"/><path d="M63.577 74.412l6.039-.127.404 14.347-3.693 4.386H60.67l2.773-4.661.134-13.945z" class="D"/><path d="M81.041 77.142c-.118.003-.234-.024-.339-.077s-.195-.131-.263-.228l-2.81-3.913a.78.78 0 0 1-.139-.441V59.131c0-.404.327-.736.732-.736h7.859c.404 0 .733.332.733.736v7.033h6.391v-7.012c0-.405.328-.737.734-.737h7.874c.404 0 .732.332.732.737v7.037h6.398v-7.037a.74.74 0 0 1 .734-.737h7.874a.75.75 0 0 1 .741.741v13.337c0 .131-.036.259-.103.372l-.045.063-2.802 3.914a.75.75 0 0 1-.267.228c-.106.054-.223.082-.342.082l-33.692-.01h0z" class="B"/><path d="M160.729 74.396l6.041-.126.41 14.345-3.693 4.391h-5.663l2.774-4.658.131-13.952zm-48.607-15.973l6.046-.126.404 14.35-3.689 4.382h-5.666l2.781-4.661.124-13.945z" class="D"/><path d="M29.749 74.961h7.866v7.79h7.881v-7.79h7.873v7.79h7.881v-7.774h7.867v13.336l-2.811 3.907 2.811 63.901H29.741l2.812-63.885-2.812-3.913V74.961h.008zm-.008-1.466a1.47 1.47 0 0 0-1.468 1.466v13.356a1.53 1.53 0 0 0 .287.883l2.51 3.493-2.789 63.363c-.021.405.121.799.396 1.088a1.51 1.51 0 0 0 1.1.478h39.34a1.51 1.51 0 0 0 1.1-.478c.275-.289.419-.683.396-1.088l-2.789-63.363 2.51-3.505a1.44 1.44 0 0 0 .286-.871v-13.34c0-.809-.656-1.465-1.468-1.465H61.25c-.811 0-1.467.656-1.467 1.465v6.298h-4.909v-6.287c.001-.196-.036-.39-.111-.572s-.184-.346-.322-.485a1.48 1.48 0 0 0-.484-.324c-.181-.075-.376-.113-.572-.112h-7.889a1.47 1.47 0 0 0-1.469 1.466v6.297h-4.908v-6.286c0-.815-.656-1.471-1.467-1.471h-7.859l-.052-.006h0zm48.511-14.359h7.866v7.779h7.873v-7.779h7.872v7.779h7.883v-7.764h7.873v13.33l-2.811 3.913H81.055l-2.811-3.913V59.135l.008.001zm-.008-1.503c-.811 0-1.467.657-1.467 1.466v13.357a1.51 1.51 0 0 0 .287.871l2.802 3.908c.278.394.729.625 1.211.619h33.755a1.46 1.46 0 0 0 1.208-.619l2.806-3.908a1.5 1.5 0 0 0 .283-.871V59.151c.001-.389-.153-.763-.428-1.039a1.47 1.47 0 0 0-1.037-.433h-7.91c-.809 0-1.469.662-1.469 1.472v6.292h-4.909v-6.292a1.47 1.47 0 0 0-1.467-1.472H94a1.47 1.47 0 0 0-1.469 1.472v6.292h-4.908v-6.292c0-.81-.658-1.472-1.468-1.472h-7.859l-.052-.046zm48.664 17.317h7.857v7.785h7.873v-7.774h7.928v7.79h7.873v-7.79h7.867v13.336l-2.813 3.907 2.813 63.88h-39.404l2.816-63.88-2.803-3.907V74.95h-.007zm0-1.471a1.47 1.47 0 0 0-1.466 1.472v13.352c0 .315.101.625.284.883l2.506 3.492-2.79 63.37a1.47 1.47 0 0 0 1.368 1.56h39.446a1.47 1.47 0 0 0 1.04-.428 1.47 1.47 0 0 0 .431-1.037c0-.032 0-.063-.007-.095l-2.786-63.37 2.509-3.503c.184-.252.284-.557.277-.872v-13.33c0-.815-.657-1.471-1.464-1.471h-7.846c-.813 0-1.469.655-1.469 1.471v6.292h-4.908v-6.292c0-.815-.656-1.471-1.467-1.471h-7.917a1.47 1.47 0 0 0-1.471 1.471v6.292h-4.905v-6.292a1.47 1.47 0 0 0-1.471-1.471h-7.863l-.031-.023h0z" class="C"/><path d="M32.135 92.461H67.4m61.541 0h35.267-35.267z" stroke-width="2" class="F G"/><defs><radialGradient id="A" cx="0" cy="0" r="1" gradientUnits="userSpaceOnUse" gradientTransform="translate(98.6049 98.602) scale(89.935)"><stop offset=".297" stop-color="#5bcd81"/><stop offset="1" stop-color="#3fa964"/></radialGradient></defs></svg>