<svg version="1.1" id="dice_x5F_darkred_x5F_2-regular-active" xmlns="http://www.w3.org/2000/svg" xmlns:xlink="http://www.w3.org/1999/xlink" x="0" y="0" width="200" height="200" xml:space="preserve"><style>.st0{fill:#abacab}.st3{fill:#81635e}.st5,.st8{fill:#595959}.st8{stroke:#414342;stroke-linecap:round;stroke-linejoin:round;stroke-miterlimit:10}.st19{fill:none}.st22{fill:#cecece}.st26{fill:#715b57}.st27{fill:none;stroke:#414342;stroke-width:2;stroke-miterlimit:10}.st28{fill:#414342}.st29{fill:#414343}</style><g id="dice_x5F_trade"><g id="dice_x5F_trade_1_"><image width="833" height="833" xlink:href="FC87756.png" transform="matrix(.24 0 0 .24 2.669 2.669)" overflow="visible" opacity=".33"/><radialGradient id="SVGID_1_" cx="98.603" cy="98.603" r="89.936" gradientUnits="userSpaceOnUse"><stop offset="0" stop-color="#fbe678"/><stop offset="1" stop-color="#e3c62b"/></radialGradient><path d="M167.684 188.539H29.524c-11.471 0-20.855-9.385-20.855-20.855V29.524c0-11.471 9.385-20.855 20.855-20.855h138.159c11.471 0 20.855 9.385 20.855 20.855v138.159c.001 11.471-9.384 20.856-20.854 20.856z" fill="url(#SVGID_1_)"/><path d="M167.684 8.669c11.471 0 20.855 9.385 20.855 20.855v138.159c0 11.471-9.385 20.855-20.855 20.855H29.524c-11.471 0-20.855-9.385-20.855-20.855V29.524c0-11.471 9.385-20.855 20.855-20.855h138.16m0-4H29.524c-13.705 0-24.855 11.15-24.855 24.855v138.159c0 13.705 11.15 24.855 24.855 24.855h138.159c13.705 0 24.855-11.15 24.855-24.855V29.524c.001-13.705-11.149-24.855-24.854-24.855z" fill="#223948"/><g><g id="Layer_1_2_"><path class="st3" d="M35.15 82.188a.778.778 0 01-.734-.73l-.293-4.401a.817.817 0 01.19-.562l14.5-17.393a.784.784 0 011.181 0l14.507 17.403c.153.194.21.446.153.687l-1.049 4.401a.783.783 0 01-.733.595H35.15zM83.748 66.435a.793.793 0 01-.771-.736l-.285-4.401a.78.78 0 01.169-.524l14.515-17.422a.783.783 0 011.187 0l14.5 17.406a.803.803 0 01.162.672l-1.05 4.408a.808.808 0 01-.735.593l-27.692.004zM132.434 82.188a.775.775 0 01-.732-.73l-.295-4.401a.818.818 0 01.172-.536l14.513-17.418a.808.808 0 01.594-.268c.228 0 .446.101.593.268l14.502 17.403a.783.783 0 01.152.687l-1.039 4.401a.791.791 0 01-.736.595h-27.724z"/><path class="st26" d="M97.961 43.813l10.133 22.753 1.306-.026-.293-2.307.346-5.693 1.731-.042zM146.647 59.591l10.132 22.753 1.308-.031-.299-2.3.345-5.7 1.729-.042zM49.355 59.601l10.134 22.75 1.306-.022-.3-2.306.345-5.694 1.732-.052z"/><path class="st29" d="M146.655 59.601l14.505 17.403-1.057 4.453h-27.67l-.294-4.401 14.508-17.407m0-1.471a1.547 1.547 0 00-1.161.547l-14.505 17.406a1.538 1.538 0 00-.353 1.061l.287 4.401a1.521 1.521 0 001.512 1.419h27.676a1.521 1.521 0 001.469-1.16l1.059-4.402c.1-.462-.014-.951-.311-1.318l-14.508-17.406a1.55 1.55 0 00-1.165-.548zM49.37 59.601l14.508 17.403-1.05 4.401H35.15l-.286-4.401L49.37 59.596m0-1.465c-.446 0-.87.199-1.159.541L33.705 76.077c-.244.301-.371.68-.354 1.063l.294 4.401c.05.782.685 1.396 1.468 1.418h27.679c.696-.01 1.3-.488 1.466-1.166l1.052-4.401a1.584 1.584 0 00-.31-1.323L50.492 58.667a1.56 1.56 0 00-1.165-.548l.043.012zM97.969 43.828l14.5 17.406-1.051 4.401h-27.67l-.293-4.401 14.506-17.406m0-1.467c-.45 0-.877.205-1.166.547L82.324 60.284a1.538 1.538 0 00-.352 1.07l.285 4.408a1.513 1.513 0 001.512 1.407h27.68a1.54 1.54 0 001.467-1.16l1.05-4.401a1.54 1.54 0 00-.31-1.324L99.129 42.888a1.525 1.525 0 00-1.16-.552l-.008.025z"/><path class="st22" d="M81.834 75.453h32.32a.74.74 0 01.741.74v31.561a.74.74 0 01-.741.741h-32.32a.74.74 0 01-.742-.741V76.193a.74.74 0 01.742-.74z"/><path class="st28" d="M114.163 76.199v31.555H81.84V76.199h32.323m0-1.465H81.84c-.811 0-1.467.656-1.467 1.465v31.555c0 .809.656 1.466 1.467 1.466h32.323c.812 0 1.468-.657 1.468-1.466V76.199c0-.808-.656-1.465-1.468-1.465z"/><path class="st22" d="M69.117 156.859a.735.735 0 01-.734-.734l-1.65-54.438a.739.739 0 01.74-.765h8.725a.73.73 0 01.734.732v6.604h7.242v-6.604a.73.73 0 01.734-.732h8.731c.403 0 .734.325.734.732v6.604h7.243v-6.604a.73.73 0 01.732-.732h8.732a.73.73 0 01.732.732v6.604h7.244v-6.604a.73.73 0 01.732-.732h8.762a.735.735 0 01.74.765l-1.671 54.453c0 .404-.33.735-.735.735l-57.767-.016z"/><path class="st0" d="M121.603 100.976l-1.743 48.841a1.314 1.314 0 01-1.309 1.244h-48.98v5.741h56.964v-5.741h-.287l2.305-50.17-6.95.085z"/><path class="st22" d="M29.741 156.876a.738.738 0 01-.733-.825l2.773-63.59-2.656-3.703a.794.794 0 01-.139-.441V74.96a.73.73 0 01.734-.73h7.865a.73.73 0 01.734.73v7.044h6.391V74.96a.73.73 0 01.734-.73h7.873a.715.715 0 01.528.221.73.73 0 01.213.521v7.042h6.398v-7.042c0-.405.329-.736.734-.736h7.925c.404 0 .732.331.732.736v13.33a.731.731 0 01-.146.44l-2.649 3.72 2.795 63.622a.73.73 0 01-.672.788c-.02 0-.041.005-.061.005H29.741z"/><path class="st0" d="M114.154 108.495l-2.352-.248-.081-7.456h-2.151v-23.63l4.567.065z"/><path class="st28" d="M128.553 101.677l-1.682 54.453h-57.77l-1.65-54.438h8.726v7.338h8.732v-7.338h8.731v7.338h8.724v-7.338h8.734v7.338h8.725v-7.338h8.73m0-1.467h-8.73c-.814 0-1.47.656-1.47 1.468v5.873h-5.761v-5.873c0-.812-.656-1.468-1.467-1.468h-8.73c-.811 0-1.468.656-1.468 1.468v5.873h-5.761v-5.873c0-.812-.657-1.468-1.469-1.468h-8.73c-.813 0-1.469.656-1.469 1.468v5.873h-5.759v-5.873c0-.812-.658-1.468-1.469-1.468h-8.812c-.401 0-.786.162-1.065.446a1.47 1.47 0 00-.417 1.079l1.672 54.411c0 .81.656 1.466 1.469 1.466h57.77c.809 0 1.466-.656 1.466-1.466l1.676-54.375v-.119c0-.813-.657-1.469-1.468-1.469l-.008.027z"/><path class="st22" d="M126.902 156.859a.8.8 0 01-.567-.251.738.738 0 01-.188-.573l2.794-63.574-2.663-3.703v-.068a.709.709 0 01-.102-.373V74.972c0-.405.328-.736.732-.736h7.869c.403 0 .732.331.732.736v7.033h6.396v-7.033c0-.405.329-.736.732-.736h7.928a.74.74 0 01.74.742v7.037h6.393v-7.037c0-.404.328-.735.734-.735h7.863a.733.733 0 01.74.746v13.33a.768.768 0 01-.094.373l-.043.068-2.693 3.703 2.804 63.627a.74.74 0 01-.672.793h-.063l-39.372-.024z"/><path class="st19" d="M67.399 92.886H32.134M129.234 92.997h34.385"/><path class="st8" d="M49.355 106.226a3.863 3.863 0 00-3.668 3.949v8.427h7.461v-8.526a3.768 3.768 0 00-3.697-3.845c-.031-.005-.062-.005-.096-.005z"/><path class="st5" d="M142.834 119.102a.5.5 0 01-.5-.5v-8.427a4.344 4.344 0 014.14-4.448c.004-.001.167.006.198.011 2.287.035 4.173 1.988 4.131 4.347v8.518a.5.5 0 01-.5.5h-7.469z"/><path class="st28" d="M146.5 106.226c.031 0 .061 0 .09.005a3.78 3.78 0 013.713 3.845v8.526h-7.469v-8.427a3.868 3.868 0 013.666-3.949m0-1l-.053.001a4.846 4.846 0 00-4.613 4.971v8.404a1 1 0 001 1h7.469a1 1 0 001-1v-8.526c.046-2.601-2.034-4.771-4.646-4.844a2.02 2.02 0 00-.157-.006z"/><path class="st8" d="M97.734 83.028a3.414 3.414 0 00-3.243 3.492v7.411h6.603v-7.537a3.33 3.33 0 00-3.295-3.366h-.065z"/><path class="st0" d="M29.236 151.061l-.287 5.631h41.144l-2.979-63.678-6.018-.117 1.328 56.799a1.327 1.327 0 01-1.291 1.365H29.236zM126.277 151.061l-.285 5.631h41.143l-2.98-63.678-6.015-.117 1.334 56.994a1.143 1.143 0 01-1.113 1.17H126.277z"/><path class="st5" d="M88.746 156.876V135.74c0-5.604 4.064-10.227 9.061-10.315h.146c5.076 0 9.216 4.474 9.216 9.979v21.478h-.77l-17.653-.006z"/><path class="st28" d="M97.933 126.127c4.683 0 8.467 4.14 8.467 9.24v20.736H89.523v-20.401c0-5.137 3.669-9.49 8.336-9.538h.131m0-1.466h-.162c-5.399.096-9.795 5.049-9.795 11.057v20.401a1.51 1.51 0 001.512 1.508h16.878c.835 0 1.511-.673 1.511-1.508v-20.789c0-5.915-4.467-10.722-9.958-10.722l.014.053z"/><path d="M112.027 60.945l6.164-.555.368 12.384-3.69 4.387h-5.668l2.785-4.666z"/><path class="st0" d="M63.577 74.413l6.039-.127.404 14.347-3.693 4.386H60.67l2.773-4.661z"/><path class="st22" d="M81.04 77.14a.715.715 0 01-.602-.305l-2.81-3.913a.78.78 0 01-.139-.441V59.129c0-.404.327-.736.732-.736h7.859c.404 0 .733.332.733.736v7.033h6.391V59.15c0-.405.328-.737.734-.737h7.874c.404 0 .732.332.732.737v7.037h6.398V59.15c0-.405.33-.737.734-.737h7.874a.749.749 0 01.741.741v13.337a.732.732 0 01-.103.372l-.045.063-2.802 3.914a.753.753 0 01-.609.31l-33.692-.01z"/><path class="st0" d="M160.729 74.397l6.041-.126.41 14.345-3.693 4.391h-5.663l2.774-4.658zM112.122 58.424l6.046-.126.404 14.35-3.689 4.382h-5.666l2.781-4.661z"/><path class="st28" d="M29.749 74.96h7.866v7.79h7.881v-7.79h7.873v7.79h7.881v-7.774h7.867V88.312l-2.811 3.907 2.811 63.901H29.741l2.812-63.885-2.812-3.913V74.96m0-1.466c-.811 0-1.468.657-1.468 1.466V88.316c.002.316.102.626.287.883l2.51 3.493-2.789 63.363c-.021.405.121.799.396 1.088.286.305.684.478 1.1.478h39.34c.416 0 .814-.173 1.1-.478.275-.289.419-.683.396-1.088l-2.789-63.363 2.51-3.505a1.44 1.44 0 00.286-.871v-13.34c0-.809-.656-1.465-1.468-1.465H61.25c-.811 0-1.467.656-1.467 1.465v6.298h-4.909v-6.287a1.484 1.484 0 00-1.489-1.493h-7.889c-.811 0-1.469.657-1.469 1.466v6.297h-4.908v-6.286c0-.815-.656-1.471-1.467-1.471h-7.859l-.052-.006zM78.252 59.135h7.866v7.779h7.873v-7.779h7.872v7.779h7.883V59.15h7.873v13.33l-2.811 3.913H81.055l-2.811-3.913V59.134m0-1.502c-.811 0-1.467.657-1.467 1.466v13.357c.002.309.102.614.287.871l2.802 3.908c.278.394.729.625 1.211.619h33.755c.479.006.93-.226 1.208-.619l2.806-3.908c.184-.257.283-.563.283-.871V59.15a1.47 1.47 0 00-1.465-1.472h-7.91c-.809 0-1.469.662-1.469 1.472v6.292h-4.909V59.15a1.47 1.47 0 00-1.467-1.472H94c-.813 0-1.469.662-1.469 1.472v6.292h-4.908V59.15c0-.81-.658-1.472-1.468-1.472h-7.859l-.052-.046zM126.908 74.949h7.857v7.785h7.873V74.96h7.928v7.79h7.873v-7.79h7.867v13.336l-2.813 3.907 2.813 63.88h-39.404l2.816-63.88-2.803-3.907V74.949M126.908 73.478c-.809 0-1.466.657-1.466 1.472v13.352c0 .315.101.625.284.883l2.506 3.492-2.79 63.37a1.468 1.468 0 001.368 1.56h39.446a1.467 1.467 0 001.471-1.465c0-.032 0-.063-.007-.095l-2.786-63.37 2.509-3.503c.184-.252.284-.557.277-.872V74.972c0-.815-.657-1.471-1.464-1.471h-7.846c-.813 0-1.469.655-1.469 1.471v6.292h-4.908v-6.292c0-.815-.656-1.471-1.467-1.471h-7.917c-.812 0-1.471.655-1.471 1.471v6.292h-4.905v-6.292c0-.815-.656-1.471-1.471-1.471h-7.863l-.031-.023z"/><path class="st27" d="M128.94 92.461h35.267M32.134 92.461h35.265"/></g></g></g></g></svg>