<svg version="1.1" id="dice_x5F_darkred_x5F_2-regular-active" xmlns="http://www.w3.org/2000/svg" xmlns:xlink="http://www.w3.org/1999/xlink" x="0" y="0" width="200" height="200" xml:space="preserve"><style>.st1{fill:#4c4c4c}.st2{fill:#4f3026}.st7{fill:#f2f2f2}.st18{fill:#2d2621}.st20{fill:#686868}.st23{fill:#331704}</style><g id="dice_x5F_regular"><image width="833" height="833" xlink:href="A850F034.png" transform="matrix(.24 0 0 .24 2.669 2.669)" overflow="visible" opacity=".33"/><radialGradient id="SVGID_1_" cx="98.603" cy="98.603" r="87.936" gradientUnits="userSpaceOnUse"><stop offset=".297" stop-color="#f6ffff"/><stop offset="1" stop-color="#cceffe"/></radialGradient><path d="M29.524 186.539c-10.396 0-18.855-8.459-18.855-18.855V29.524c0-10.396 8.459-18.855 18.855-18.855h138.159c10.396 0 18.855 8.459 18.855 18.855v138.159c0 10.396-8.459 18.855-18.855 18.855H29.524z" fill="url(#SVGID_1_)"/><path d="M167.684 12.669c9.294 0 16.855 7.562 16.855 16.855v138.159c0 9.294-7.562 16.855-16.855 16.855H29.524c-9.294 0-16.855-7.562-16.855-16.855V29.524c0-9.294 7.562-16.855 16.855-16.855h138.16m0-4H29.524c-11.471 0-20.855 9.385-20.855 20.855v138.159c0 11.471 9.385 20.855 20.855 20.855h138.159c11.471 0 20.855-9.385 20.855-20.855V29.524c.001-11.47-9.384-20.855-20.854-20.855z" fill="#9cbbd0"/><path d="M167.684 8.669c11.471 0 20.855 9.385 20.855 20.855v138.159c0 11.471-9.385 20.855-20.855 20.855H29.524c-11.471 0-20.855-9.385-20.855-20.855V29.524c0-11.471 9.385-20.855 20.855-20.855h138.16m0-4H29.524c-13.705 0-24.855 11.15-24.855 24.855v138.159c0 13.705 11.15 24.855 24.855 24.855h138.159c13.705 0 24.855-11.15 24.855-24.855V29.524c.001-13.705-11.149-24.855-24.854-24.855z" fill="#223948"/><g><path d="M138.92 88.419c4.977-22.453 13.045-28.161 13.236-31.67-.254-1.467-4.523-.28-7.08-.737-11.846-2.121-23.635-4.553-35.447-6.843-.727-.141-1.471-.231-2.01-.511-.133.019-.268.038-.398.058 0 .513-.004 1.023-.037 1.532l32.404 6.303c-.014.11-.025.22-.037.329-10.781.94-21.561 1.881-32.469 2.831 0 0-2.824.324-4.25.321v.035l-20.948 1.841-.122-.379c6.797-3.493 13.599-6.987 20.576-10.574-.006-.49-.006-.976.031-1.456 0-.018-.002-.035-.004-.052-.184.026-.365.056-.549.085-.541.333-1.179.6-1.767.9-5.857 3.008-11.719 6.01-17.576 9.016-3.099 1.59-6.039 3.634-10.153 3.121.46 22.402-7.941 41.24 3.451 60.039 1.046-7.935 43.146-3.313 49.945-.896 2.381.848 13.596 3.111 13.586 2.938-.023-.534-3.648-24.938-.382-36.231z" fill="#424242" stroke="#331704" stroke-width="4" stroke-miterlimit="10"/><path d="M154.043 118.744c-.49-4.766-1.904-9.435-2.828-14.162-.127-.644.082-1.54.48-2.059.885-1.16 1.502-2.266.656-3.664a2.718 2.718 0 00-.623-.682c-.805-1.325-5.193-1.834-6.633-1.275-1.633.634-1.742 1.236-1.582 2.567.238 2.002.654 3.983 1.025 5.967 1.02 5.473 3.502 13.682-.021 18.227a4.138 4.138 0 01-.318.214c-2.371 1.373-6.221 2.606-10.91 3.615-1.191-1.12-2.77-1.795-4.588-1.821-2.76-.041-5.434 1.421-7.281 3.693-1.361.15-2.746.283-4.143.398-1.203-1.998-3.27-3.289-5.799-3.326-2.803-.042-5.518 1.466-7.367 3.801a96.594 96.594 0 01-3.524-.172c-1.053-2.596-3.376-4.351-6.332-4.395-2.479-.037-4.891 1.141-6.694 3.029-5.245-.7-10.44-1.514-14.872-2.19-2.947-2.342-5.586-5.152-7.994-8.506-3.596-5.008-6.31-10.367-6.463-16.689-.076-3.152.341-3.59 3.359-4.319.094-.022.172-.116.36-.25l-.413-4.402 2.457-.352c-2.571-2.508-4.703-4.813-7.074-6.837-2.383-2.033-4.105-2.128-6.158.23-1.856 2.132-3.768 2.81-6.352 2.313-.066-.013-.164.13-.166.132 0 1.749.1 3.433-.024 5.1-.149 1.977-.694 3.778-3.207 3.895 1.962 3.935 3.837 4.184 6.587.995.668-.774 1.287-1.592 2.098-2.601.137 1.348.209 2.348.347 3.339.355 2.561.316 4.944-1.749 6.969-.891.874-1.402 2.156-2.012 3.294-8.791 16.445-2.797 35.724 13.679 43.924.495.247 1.41.426 1.774.482 51.788 6.399 75.278-1.631 85.151-11.729.035-.006 5.936-5.882 6.689-10.552.645-3.997.877-8.184.465-12.201z" fill="#272727" stroke="#151515" stroke-width="4" stroke-miterlimit="10"/><path class="st23" d="M104.906 149.281a3.26 3.26 0 01-3.256-3.257V46.743a3.26 3.26 0 013.256-3.257 3.261 3.261 0 013.258 3.257v99.281a3.261 3.261 0 01-3.258 3.257z"/><path class="st23" d="M104.906 44.486a2.257 2.257 0 012.258 2.257v99.281a2.257 2.257 0 11-4.514 0V46.743a2.258 2.258 0 012.256-2.257m0-2a4.26 4.26 0 00-4.256 4.257v99.281a4.26 4.26 0 004.256 4.257 4.262 4.262 0 004.258-4.257V46.743a4.262 4.262 0 00-4.258-4.257z"/><path class="st2" d="M107.107 146.194a2.256 2.256 0 01-2.256 2.256 2.255 2.255 0 01-2.256-2.256V46.912a2.256 2.256 0 114.512 0v99.282z"/><path d="M138.92 88.419c4.977-22.453 13.045-28.161 13.236-31.67-.254-1.467-4.523-.28-7.08-.737-11.846-2.121-23.635-4.553-35.447-6.843-.727-.141-1.471-.231-2.01-.511-.133.019-.268.038-.398.058 0 .513-.004 1.023-.037 1.532l32.404 6.303c-.014.11-.025.22-.037.329-10.781.94-21.561 1.881-32.469 2.831 0 0-2.824.324-4.25.321v.035l-20.948 1.841-.122-.379c6.797-3.493 12.386-6.425 19.365-10.011-.006-.464.15-1.72-.031-1.69-.542.334-.458.304-1.046.604-5.857 3.008-11.719 6.01-17.576 9.016-3.099 1.59-6.039 3.634-10.153 3.121.46 22.402-7.941 41.24 3.451 60.039 1.046-7.935 43.146-3.313 49.945-.896 2.381.848 13.596 3.111 13.586 2.938-.024-.534-3.649-24.938-.383-36.231z" fill="#5e2121"/><path class="st2" d="M101.096 49.828c-.542.334-.458.304-1.046.604-5.857 3.008-11.719 6.01-17.576 9.016-1.794.921-3.543 1.978-5.49 2.617 0 0 3.239.046 3.539-.007.04-.021 1.77-.16 1.811-.179l.032-.014c-.16.014-.563-.211-.604-.337 6.797-3.493 12.386-6.425 19.365-10.011-.006-.462.15-1.718-.031-1.689zM139.557 56.808c2.164-.303 5.111-.756 5.48-.804-11.83-2.118-23.609-4.546-35.408-6.835-.727-.141-1.471-.231-2.01-.511-.133.019-.268.038-.398.058 0 .513-.004 1.023-.037 1.532l32.404 6.303c-.012.085-.02.171-.031.257z"/><path class="st7" d="M86.077 91.329c.378-6.217 1.399-12.412 2.302-18.568.369-2.521.616-5.09 1.167-7.579.197-.891.411-1.783.568-2.683-.021.059.082-.812.081-.894-.003-.074-.007-.138-.008-.192-.01-.077-.016-.154-.024-.231l-6.896.605c-.906.11-1.82.192-2.736.264.654 2.244-3.288 33.987-3.102 38.36.479 11.163 3.344 17.683 3.873 18.695 2.1-.452 4.681-.724 7.536-.852-1.995-8.833-3.31-17.887-2.761-26.925zM134.262 68.522c2.156-4.059 4.643-7.915 7.123-11.777a54.45 54.45 0 01-2.193.166c-5.225.455-10.449.912-15.688 1.367-.328 2.828-1.41 5.399-2.355 8.094-1.068 3.045-2.035 6.131-2.787 9.271-1.531 6.386-2.088 12.831-2.033 19.394.066 8.437 1.004 16.799 2.111 25.146 3.363.521 5.973 1.066 7.277 1.53.57.202 1.65.487 2.961.801a57.325 57.325 0 01-1.482-6.34c-1.479-8.433-1.469-16.775-.125-25.225 1.245-7.84 3.452-15.396 7.191-22.427zM105.527 95.036c-.012-7.019.52-14.066 2.102-20.918a93.542 93.542 0 012.65-9.303c.553-1.61 1.5-3.801 2.061-5.562l-5.258.457s-2.824.324-4.25.321v.035l-2.84.249c.212 2.023-.118 4.017-.56 6.028-.493 2.265-.831 4.524-1.166 6.818-.808 5.545-1.674 11.087-2.162 16.673-.842 9.618.684 19.141 2.923 28.463 2.816.122 5.668.32 8.416.566-1.047-7.91-1.902-15.842-1.916-23.827z"/><path d="M137.84 94.695c-7.127 3.313-14.588 6.01-22.168 7.888-9.578 2.377-19.653 3.826-29.544 3.454-5.406-.203-10.938-.76-16.188-2.142.48 6.325 2.079 12.521 5.831 18.713 1.046-7.935 43.146-3.313 49.945-.896 2.381.848 13.596 3.111 13.586 2.938-.019-.447-2.579-17.74-1.462-29.955z" opacity=".5" fill="#492424"/><path class="st18" d="M151.633 117.691c-.49-4.766-1.906-9.435-2.83-14.162-.125-.644.086-1.539.48-2.058.885-1.16 3.178-1.895 2.332-3.294-.803-1.325-5.193-1.834-6.635-1.275-1.629.634-1.74 1.236-1.582 2.567.24 2.002.656 3.983 1.027 5.967 1.047 5.614 3.635 14.112-.307 18.575-2.758 3.124-18.008 9.365-18.188 9.895.881.386 1.764.77 2.65 1.146-.887-.374-1.773-.749-2.66-1.122 0 .002 0 .003-.002.005 3.998 1.704 7.938 3.521 11.918 5.259a50.88 50.88 0 004.463 1.57 23.84 23.84 0 011.914-.366c3.512-2.563 6.199-5.835 6.953-10.504.647-3.998.879-8.185.467-12.203z"/><path class="st18" d="M147.965 121.015c-.553-.173-2.68 2.232-3.766 2.862-6.162 3.572-22.314 6.196-37.314 6.387-16.34.207-46.438-6.633-46.692-4.848-1.313 9.193 34.572 15.946 54.093 13.649 19.517-2.295 34.698-17.732 33.679-18.05z"/><path d="M154.043 118.744c-.49-4.766-1.904-9.435-2.828-14.162-.127-.644.082-1.54.48-2.059.885-1.16 1.502-2.266.656-3.664-.805-1.326-3.68-2.319-5.123-1.759-1.631.632-1.578 2.091-1.42 3.423.238 2.001.654 3.98 1.027 5.967.871 4.67 2.967 11.376 1.32 16.056-2.871 4.672-7.076 5.715-14.736 8.547-19.963 7.382-43.655 2.946-49.192 1.742-8.122-2.895-14.355-7.618-19.533-14.831-3.596-5.008-6.31-10.367-6.463-16.689-.076-3.152.341-3.59 3.359-4.319.094-.022.172-.116.36-.25l-.413-4.402 2.457-.352c-2.571-2.508-4.703-4.813-7.074-6.837-2.383-2.033-4.105-2.128-6.158.23-1.856 2.132-3.768 2.81-6.352 2.313-.066-.013-.164.13-.166.132 0 1.749.1 3.433-.024 5.1-.149 1.977-.694 3.778-3.207 3.895 1.962 3.935 3.837 4.184 6.587.995.668-.774 1.287-1.592 2.098-2.601.137 1.348.209 2.348.347 3.339.355 2.561.316 4.944-1.749 6.969-.891.874-1.402 2.156-2.012 3.294-8.791 16.445-2.797 35.724 13.679 43.924.495.247 1.41.426 1.774.482 51.788 6.399 75.278-1.631 85.151-11.729.035-.006 5.936-5.882 6.689-10.552.646-3.998.878-8.185.466-12.202z" fill="#3a312b"/><path class="st18" d="M138.893 143.279c-11.555 3.851-23.947 6.489-36.176 6.365-10.438-.107-30.836-1.712-49.602-14.492-3.932-2.678-7.521-5.908-10.938-9.234.463 11.105 6.762 21.396 17.672 26.826.496.247 1.411.426 1.774.482 51.787 6.399 75.281-1.631 85.152-11.729.014-.002.893-.871 2.01-2.203-3.18 1.602-6.549 2.87-9.892 3.985z"/><path class="st1" d="M101.082 134.852c-.776 5.002-5.09 9.002-9.633 8.935-4.544-.066-7.601-4.177-6.825-9.18.774-5.003 5.087-9.003 9.631-8.936 4.545.067 7.602 4.178 6.827 9.181z"/><path class="st20" d="M95.616 134.77c-.259 1.681-1.709 3.025-3.236 3.002-1.526-.021-2.554-1.403-2.294-3.085.261-1.68 1.711-3.024 3.237-3.002 1.528.023 2.555 1.404 2.293 3.085z"/><path class="st1" d="M118.305 135.617c-.775 5.002-5.088 9.003-9.631 8.934-4.547-.066-7.602-4.177-6.828-9.179.777-5.003 5.088-9.003 9.633-8.936s7.599 4.178 6.826 9.181z"/><path class="st20" d="M112.84 135.535c-.26 1.682-1.709 3.025-3.236 3.003-1.527-.023-2.553-1.405-2.293-3.085.262-1.681 1.709-3.025 3.236-3.003 1.527.024 2.553 1.404 2.293 3.085z"/><path class="st1" d="M135.525 134.852c-.773 5.002-5.088 9.002-9.631 8.935-4.545-.066-7.6-4.177-6.824-9.18.773-5.003 5.086-9.003 9.631-8.936s7.6 4.178 6.824 9.181z"/><path class="st20" d="M130.063 134.77c-.262 1.681-1.711 3.025-3.236 3.002-1.527-.021-2.553-1.403-2.295-3.085.26-1.68 1.711-3.024 3.238-3.002 1.527.023 2.552 1.404 2.293 3.085z"/></g></g></svg>